<svg xmlns="http://www.w3.org/2000/svg" width="375" viewBox="0 0 375 375" height="375" version="1.0"><defs><clipPath id="a"><path d="M 142 227 L 232 227 L 232 244.46875 L 142 244.46875 Z M 142 227"/></clipPath><clipPath id="b"><path d="M 128.644531 80.21875 L 246.394531 80.21875 L 246.394531 224 L 128.644531 224 Z M 128.644531 80.21875"/></clipPath></defs><g clip-path="url(#a)"><path fill="#AA391B" d="M 231.460938 235.832031 C 231.460938 236.113281 231.390625 236.390625 231.246094 236.667969 C 231.105469 236.949219 230.890625 237.222656 230.605469 237.5 C 230.324219 237.773438 229.96875 238.042969 229.546875 238.3125 C 229.125 238.582031 228.636719 238.84375 228.078125 239.101562 C 227.519531 239.359375 226.898438 239.613281 226.214844 239.859375 C 225.527344 240.109375 224.78125 240.347656 223.972656 240.578125 C 223.164062 240.8125 222.296875 241.039062 221.375 241.253906 C 220.449219 241.46875 219.472656 241.675781 218.445312 241.875 C 217.417969 242.074219 216.339844 242.261719 215.214844 242.4375 C 214.089844 242.617188 212.921875 242.78125 211.710938 242.9375 C 210.5 243.09375 209.253906 243.238281 207.972656 243.371094 C 206.6875 243.5 205.375 243.621094 204.027344 243.726562 C 202.683594 243.835938 201.316406 243.929688 199.921875 244.011719 C 198.53125 244.09375 197.121094 244.160156 195.691406 244.214844 C 194.265625 244.269531 192.828125 244.308594 191.378906 244.335938 C 189.929688 244.363281 188.480469 244.378906 187.023438 244.378906 C 185.566406 244.378906 184.117188 244.363281 182.667969 244.335938 C 181.21875 244.308594 179.78125 244.269531 178.355469 244.214844 C 176.925781 244.160156 175.515625 244.09375 174.125 244.011719 C 172.730469 243.929688 171.363281 243.835938 170.019531 243.726562 C 168.675781 243.621094 167.359375 243.5 166.078125 243.371094 C 164.792969 243.238281 163.546875 243.09375 162.335938 242.9375 C 161.125 242.78125 159.957031 242.617188 158.832031 242.4375 C 157.707031 242.261719 156.632812 242.074219 155.601562 241.875 C 154.574219 241.675781 153.597656 241.46875 152.671875 241.253906 C 151.75 241.039062 150.882812 240.8125 150.074219 240.578125 C 149.265625 240.347656 148.519531 240.109375 147.835938 239.859375 C 147.148438 239.613281 146.527344 239.359375 145.96875 239.101562 C 145.414062 238.84375 144.921875 238.582031 144.5 238.3125 C 144.078125 238.042969 143.726562 237.773438 143.441406 237.5 C 143.15625 237.222656 142.945312 236.949219 142.800781 236.667969 C 142.660156 236.390625 142.585938 236.113281 142.585938 235.832031 C 142.585938 235.550781 142.660156 235.273438 142.800781 234.992188 C 142.945312 234.714844 143.15625 234.4375 143.441406 234.164062 C 143.726562 233.890625 144.078125 233.617188 144.5 233.351562 C 144.921875 233.082031 145.414062 232.820312 145.96875 232.5625 C 146.527344 232.300781 147.148438 232.050781 147.835938 231.800781 C 148.519531 231.554688 149.265625 231.316406 150.074219 231.082031 C 150.882812 230.851562 151.75 230.625 152.671875 230.410156 C 153.597656 230.191406 154.574219 229.984375 155.601562 229.789062 C 156.632812 229.589844 157.707031 229.402344 158.832031 229.226562 C 159.957031 229.046875 161.125 228.878906 162.335938 228.726562 C 163.546875 228.570312 164.792969 228.425781 166.078125 228.292969 C 167.359375 228.160156 168.675781 228.042969 170.019531 227.933594 C 171.363281 227.828125 172.730469 227.734375 174.125 227.652344 C 175.515625 227.570312 176.925781 227.503906 178.355469 227.449219 C 179.78125 227.394531 181.21875 227.351562 182.667969 227.324219 C 184.117188 227.296875 185.566406 227.285156 187.023438 227.285156 C 188.480469 227.285156 189.929688 227.296875 191.378906 227.324219 C 192.828125 227.351562 194.265625 227.394531 195.691406 227.449219 C 197.121094 227.503906 198.53125 227.570312 199.921875 227.652344 C 201.316406 227.734375 202.683594 227.828125 204.027344 227.933594 C 205.375 228.042969 206.6875 228.160156 207.972656 228.292969 C 209.253906 228.425781 210.5 228.570312 211.710938 228.726562 C 212.921875 228.878906 214.089844 229.046875 215.214844 229.226562 C 216.339844 229.402344 217.417969 229.589844 218.445312 229.789062 C 219.472656 229.984375 220.449219 230.191406 221.375 230.410156 C 222.296875 230.625 223.164062 230.851562 223.972656 231.082031 C 224.78125 231.316406 225.527344 231.554688 226.214844 231.800781 C 226.898438 232.050781 227.519531 232.300781 228.078125 232.5625 C 228.636719 232.820312 229.125 233.082031 229.546875 233.351562 C 229.96875 233.617188 230.324219 233.890625 230.605469 234.164062 C 230.890625 234.4375 231.105469 234.714844 231.246094 234.992188 C 231.390625 235.273438 231.460938 235.550781 231.460938 235.832031 Z M 231.460938 235.832031"/></g><g clip-path="url(#b)"><path fill="#051D40" d="M 243.898438 199.699219 C 231.679688 190.132812 226.527344 171.511719 224.414062 156.085938 C 221.058594 131.617188 227.210938 80.3125 188.734375 80.3125 C 155.050781 80.3125 152.5625 128.132812 148.957031 151.167969 C 146.1875 168.875 134.746094 191.351562 129.609375 200.8125 C 129.390625 201.214844 129.207031 201.628906 129.058594 202.0625 C 128.910156 202.496094 128.800781 202.9375 128.734375 203.390625 C 128.664062 203.839844 128.632812 204.296875 128.640625 204.753906 C 128.648438 205.207031 128.699219 205.660156 128.785156 206.109375 C 128.871094 206.558594 128.996094 206.996094 129.160156 207.421875 C 129.324219 207.847656 129.523438 208.257812 129.757812 208.652344 C 129.992188 209.042969 130.261719 209.410156 130.558594 209.757812 C 130.859375 210.101562 131.183594 210.417969 131.539062 210.707031 C 135.492188 213.898438 142.195312 216.292969 152.132812 210.441406 C 152.46875 210.238281 152.792969 210.066406 153.121094 209.882812 C 156.394531 206.535156 163.1875 197.628906 166.5 178.855469 L 167.21875 178.984375 C 164.257812 195.683594 158.710938 204.597656 155.097656 208.851562 C 169.449219 201.976562 175.679688 211.179688 177.425781 214.859375 C 179.289062 218.785156 187.054688 226.820312 200.980469 218.71875 C 206.503906 215.511719 212.183594 218.007812 216.605469 221.488281 C 216.925781 221.738281 217.265625 221.964844 217.617188 222.164062 C 215.960938 218.175781 213.964844 212.859375 212.613281 208.347656 L 213.3125 208.132812 C 214.746094 212.925781 216.914062 218.628906 218.640625 222.671875 C 219.476562 223.035156 220.347656 223.257812 221.253906 223.332031 C 222.160156 223.40625 223.054688 223.332031 223.9375 223.109375 C 224.820312 222.886719 225.644531 222.527344 226.40625 222.03125 C 227.167969 221.535156 227.832031 220.925781 228.394531 220.207031 C 230.003906 218.078125 232.148438 215.191406 235.746094 214.871094 C 246.226562 213.890625 249.027344 203.714844 243.898438 199.699219 Z M 167.769531 175.113281 L 167.667969 176.1875 L 166.941406 176.121094 L 167.039062 175.042969 C 167.496094 170.203125 168.554688 158.855469 168.609375 154.027344 L 169.335938 154.027344 C 169.285156 158.898438 168.261719 169.875 167.769531 175.113281 Z M 179.019531 211.441406 C 178.652344 196.203125 176.058594 179.414062 176.058594 179.242188 L 176.78125 179.128906 C 176.78125 179.292969 179.398438 196.140625 179.769531 211.425781 Z M 196.898438 186.992188 L 196.175781 187.066406 C 193.730469 162.640625 196.8125 146.535156 196.839844 146.375 L 197.558594 146.519531 C 197.558594 146.679688 194.5 162.679688 196.929688 186.992188 Z M 210.972656 202.496094 C 203.636719 174.519531 201.9375 142.554688 201.921875 142.234375 L 202.648438 142.199219 C 202.648438 142.519531 204.367188 174.414062 211.679688 202.3125 Z M 224.839844 209.710938 C 219.542969 200.570312 219.480469 186.078125 219.480469 185.9375 L 220.210938 185.9375 C 220.210938 186.078125 220.269531 200.375 225.472656 209.34375 Z M 235.316406 208.523438 C 224.9375 200.089844 222.335938 182.460938 222.289062 182.285156 L 223.011719 182.183594 C 223.011719 182.355469 225.597656 199.703125 235.746094 207.953125 Z M 235.316406 208.523438"/></g><path fill="#F15A29" d="M 177.445312 118.664062 C 177.445312 119.515625 177.398438 120.355469 177.300781 121.191406 C 177.207031 122.023438 177.070312 122.835938 176.886719 123.621094 C 176.699219 124.40625 176.476562 125.152344 176.207031 125.859375 C 175.941406 126.566406 175.636719 127.21875 175.292969 127.820312 C 174.953125 128.421875 174.582031 128.957031 174.183594 129.429688 C 173.78125 129.902344 173.359375 130.300781 172.914062 130.628906 C 172.46875 130.953125 172.011719 131.199219 171.539062 131.363281 C 171.066406 131.53125 170.589844 131.613281 170.109375 131.613281 C 169.625 131.613281 169.148438 131.53125 168.675781 131.363281 C 168.203125 131.199219 167.746094 130.953125 167.300781 130.628906 C 166.855469 130.300781 166.433594 129.902344 166.03125 129.429688 C 165.632812 128.957031 165.261719 128.421875 164.921875 127.820312 C 164.578125 127.21875 164.277344 126.566406 164.007812 125.859375 C 163.738281 125.152344 163.515625 124.40625 163.328125 123.621094 C 163.144531 122.835938 163.007812 122.023438 162.914062 121.191406 C 162.820312 120.355469 162.773438 119.515625 162.773438 118.664062 C 162.773438 117.816406 162.820312 116.972656 162.914062 116.140625 C 163.007812 115.304688 163.144531 114.496094 163.328125 113.710938 C 163.515625 112.925781 163.738281 112.179688 164.007812 111.472656 C 164.277344 110.765625 164.578125 110.109375 164.921875 109.507812 C 165.261719 108.90625 165.632812 108.371094 166.03125 107.898438 C 166.433594 107.425781 166.855469 107.027344 167.300781 106.703125 C 167.746094 106.378906 168.203125 106.132812 168.675781 105.964844 C 169.148438 105.800781 169.625 105.71875 170.109375 105.71875 C 170.589844 105.71875 171.066406 105.800781 171.539062 105.964844 C 172.011719 106.132812 172.46875 106.378906 172.914062 106.703125 C 173.359375 107.027344 173.78125 107.425781 174.183594 107.898438 C 174.582031 108.371094 174.953125 108.90625 175.292969 109.507812 C 175.636719 110.109375 175.941406 110.765625 176.207031 111.472656 C 176.476562 112.179688 176.699219 112.925781 176.886719 113.710938 C 177.070312 114.496094 177.207031 115.304688 177.300781 116.140625 C 177.398438 116.972656 177.445312 117.816406 177.445312 118.664062 Z M 177.445312 118.664062"/><path fill="#051D40" d="M 165.660156 125.390625 C 162.390625 113.527344 167.933594 108.785156 168.171875 108.597656 L 168.632812 109.191406 C 168.578125 109.238281 163.234375 113.84375 166.367188 125.242188 Z M 165.660156 125.390625"/><path fill="#051D40" d="M 167.289062 128.515625 C 166.785156 127.851562 166.359375 127.136719 166.015625 126.375 L 166.679688 126.074219 C 167.003906 126.769531 167.398438 127.429688 167.863281 128.042969 Z M 167.289062 128.515625"/><path fill="#F15A29" d="M 196.058594 118.664062 C 196.058594 119.515625 196.011719 120.355469 195.917969 121.191406 C 195.824219 122.023438 195.683594 122.835938 195.5 123.621094 C 195.316406 124.40625 195.089844 125.152344 194.824219 125.859375 C 194.554688 126.566406 194.25 127.21875 193.910156 127.820312 C 193.570312 128.421875 193.199219 128.957031 192.796875 129.429688 C 192.398438 129.902344 191.976562 130.300781 191.53125 130.628906 C 191.085938 130.953125 190.625 131.199219 190.152344 131.363281 C 189.683594 131.53125 189.203125 131.613281 188.722656 131.613281 C 188.242188 131.613281 187.765625 131.53125 187.292969 131.363281 C 186.820312 131.199219 186.359375 130.953125 185.914062 130.628906 C 185.46875 130.300781 185.046875 129.902344 184.648438 129.429688 C 184.246094 128.957031 183.875 128.421875 183.535156 127.820312 C 183.195312 127.21875 182.890625 126.566406 182.625 125.859375 C 182.355469 125.152344 182.128906 124.40625 181.945312 123.621094 C 181.761719 122.835938 181.621094 122.023438 181.527344 121.191406 C 181.433594 120.355469 181.386719 119.515625 181.386719 118.664062 C 181.386719 117.816406 181.433594 116.972656 181.527344 116.140625 C 181.621094 115.304688 181.761719 114.496094 181.945312 113.710938 C 182.128906 112.925781 182.355469 112.179688 182.625 111.472656 C 182.890625 110.765625 183.195312 110.109375 183.535156 109.507812 C 183.875 108.90625 184.246094 108.371094 184.648438 107.898438 C 185.046875 107.425781 185.46875 107.027344 185.914062 106.703125 C 186.359375 106.378906 186.820312 106.132812 187.292969 105.964844 C 187.765625 105.800781 188.242188 105.71875 188.722656 105.71875 C 189.203125 105.71875 189.683594 105.800781 190.152344 105.964844 C 190.625 106.132812 191.085938 106.378906 191.53125 106.703125 C 191.976562 107.027344 192.398438 107.425781 192.796875 107.898438 C 193.199219 108.371094 193.570312 108.90625 193.910156 109.507812 C 194.25 110.109375 194.554688 110.765625 194.824219 111.472656 C 195.089844 112.179688 195.316406 112.925781 195.5 113.710938 C 195.683594 114.496094 195.824219 115.304688 195.917969 116.140625 C 196.011719 116.972656 196.058594 117.816406 196.058594 118.664062 Z M 196.058594 118.664062"/><path fill="#051D40" d="M 184.300781 125.390625 C 181.007812 113.527344 186.542969 108.785156 186.78125 108.597656 L 187.25 109.191406 C 187.191406 109.238281 181.847656 113.84375 184.976562 125.242188 Z M 184.300781 125.390625"/><path fill="#051D40" d="M 185.90625 128.515625 C 185.398438 127.851562 184.972656 127.136719 184.625 126.375 L 185.289062 126.074219 C 185.613281 126.773438 186.007812 127.429688 186.472656 128.042969 Z M 185.90625 128.515625"/></svg>