<svg enable-background="new 0 0 93.767 70.693" height="70.693" viewBox="0 0 93.767 70.693" width="93.767" xmlns="http://www.w3.org/2000/svg"><path d="m87.389 30.652c-.599-16.458-14.99-29.465-30.412-29.261l.956-.22-36.287-.238c-2.374.026-4.297 2.165-4.273 4.753s1.987 4.684 4.361 4.657l6.983.564c-2.132 2.353-4.419 5.592-5.771 8.491l-17.628-.396c-2.374.026-4.297 2.165-4.273 4.753s1.987 4.684 4.361 4.657l14.952.426c-.086 1.193-.156 3.123-.114 4.259.022.602.101 1.397.162 2.014l-3.968-.211c-2.374.026-4.297 2.165-4.273 4.753s1.987 4.684 4.361 4.657l6.438.184c1.452 3.047 3.604 6.394 5.913 8.762l-8.417.154c-2.374.026-4.297 2.165-4.273 4.753s1.987 4.684 4.361 4.657l37.401-.286.962-.198c16.874-.73 29.093-14.806 28.478-31.684z" fill="#fff"/><g fill="#ff6338"><path d="m54.574 63.734c-.434 0-.789-.345-.8-.781-.011-.441.339-.808.78-.819 18.167-.436 32.623-14.324 32.224-30.958-.394-16.366-15.022-29.387-32.796-29.387-.291 0-.583.004-.875.011-.007 0-.014 0-.02 0-.434 0-.789-.345-.8-.781-.011-.441.339-.808.78-.819 19.071-.451 34.889 13.422 35.31 30.938.42 17.517-14.735 32.139-33.784 32.596-.006 0-.013 0-.019 0z"/><path d="m23.263 19.725c-.122 0-.246-.028-.363-.088-.394-.201-.549-.683-.348-1.077 1.599-3.128 3.73-5.986 6.336-8.495.318-.307.823-.297 1.131.021.307.318.297.825-.021 1.131-2.478 2.385-4.503 5.101-6.021 8.071-.141.278-.423.437-.714.437z"/><path d="m20.195 35.508c-.409 0-.758-.312-.796-.727-.06-.653-.099-1.321-.114-1.985-.029-1.226.018-2.469.142-3.693.045-.439.444-.76.876-.715.439.044.76.437.716.876-.117 1.158-.162 2.333-.134 3.494.016.631.051 1.257.108 1.877.04.44-.284.83-.724.87-.025.002-.05.003-.074.003z"/><path d="m29.315 54.153c-.2 0-.4-.074-.556-.224-2.676-2.583-4.841-5.535-6.434-8.773-.195-.396-.032-.876.364-1.071.402-.196.878-.032 1.071.365 1.511 3.072 3.566 5.874 6.109 8.328.317.307.327.813.02 1.131-.155.163-.365.244-.574.244z"/><path d="m48.764 11.277c-.001 0-.003 0-.004 0l-26.651-.146c-3.069-.017-5.553-2.526-5.536-5.596.017-3.058 2.511-5.535 5.565-5.535h.03l32.301.177c.442.002.799.362.796.804-.002.44-.36.795-.8.795-.001 0-.003 0-.004 0l-32.3-.176c-.008 0-.015 0-.022 0-2.177 0-3.953 1.765-3.966 3.944-.011 2.187 1.759 3.975 3.944 3.987l26.651.146c.442.002.799.362.796.804-.002.441-.36.796-.8.796z"/><path d="m37.84 29.362c-.001 0-.003 0-.004 0l-32.3-.177c-1.481-.008-2.875-.596-3.923-1.655s-1.621-2.459-1.612-3.94c.008-1.481.596-2.874 1.655-3.922 1.052-1.041 2.439-1.613 3.909-1.613h.03l32.302.177c.442.002.799.362.796.804-.002.44-.36.795-.8.795-.001 0-.003 0-.004 0l-32.301-.177c-1.065-.011-2.051.402-2.807 1.15s-1.175 1.74-1.181 2.794.402 2.051 1.15 2.806c.747.756 1.739 1.175 2.793 1.181l32.301.177c.442.002.799.362.796.804-.002.441-.36.796-.8.796z"/><path d="m31.181 45.211c-.001 0-.003 0-.004 0l-14.425-.079c-3.069-.017-5.553-2.526-5.536-5.596.008-1.481.597-2.875 1.656-3.923 1.052-1.04 2.439-1.613 3.909-1.613h.032l14.536.08c.442.002.799.362.796.804-.002.44-.36.795-.8.795-.001 0-.003 0-.004 0l-14.537-.079c-1.074.01-2.052.403-2.807 1.15-.756.748-1.176 1.74-1.182 2.794-.011 2.187 1.759 3.975 3.944 3.987l14.425.079c.442.002.799.362.796.804-.001.442-.359.797-.799.797z"/><path d="m54.574 63.734c-.001 0-.002 0-.003 0l-33.647-.107c-1.482-.008-2.876-.596-3.924-1.655s-1.621-2.459-1.612-3.94c.008-1.481.597-2.875 1.656-3.923s2.473-1.623 3.94-1.612l32.3.177c.442.002.799.362.796.804-.002.44-.36.795-.8.795-.001 0-.003 0-.004 0l-32.301-.177c-1.034.003-2.052.403-2.807 1.15-.756.748-1.176 1.74-1.182 2.794s.402 2.051 1.15 2.806c.747.756 1.739 1.175 2.793 1.181l33.646.107c.441.001.799.36.797.802.001.442-.358.798-.798.798z"/><path d="m62.479 30.385c-.804 0-1.621-.159-2.406-.496-1.505-.646-2.669-1.838-3.277-3.359s-.588-3.187.058-4.692c.571-1.333 1.6-2.422 2.896-3.069.396-.198.876-.037 1.073.358s.037.876-.358 1.073c-.958.478-1.718 1.283-2.14 2.269-.984 2.296.083 4.965 2.38 5.95 2.297.983 4.966-.083 5.949-2.38.395-.922.474-1.922.229-2.892-.108-.428.151-.863.579-.972.431-.108.864.151.972.58.332 1.313.225 2.667-.31 3.914-.995 2.322-3.265 3.716-5.645 3.716z"/><path d="m73.059 31.131c-.82 0-1.639-.167-2.415-.499-1.505-.645-2.669-1.838-3.277-3.358s-.588-3.187.058-4.692c.175-.406.648-.592 1.051-.42.406.174.594.645.42 1.051-.477 1.112-.492 2.344-.043 3.467.45 1.124 1.311 2.005 2.423 2.482 1.112.478 2.344.491 3.467.043 1.124-.45 2.006-1.31 2.482-2.422.477-1.112.492-2.344.043-3.467-.45-1.124-1.311-2.005-2.423-2.482-.406-.174-.594-.645-.42-1.05.174-.408.645-.593 1.051-.42 1.505.645 2.669 1.838 3.277 3.358s.588 3.187-.058 4.692-1.838 2.669-3.358 3.277c-.737.293-1.508.44-2.278.44z"/><path d="m59.342 19.957c-.746.545-1.363 1.286-1.753 2.197-1.133 2.643.041 5.69 2.618 6.911.746-.545 1.363-1.286 1.753-2.197 1.133-2.644-.041-5.69-2.618-6.911z"/><path d="m71.276 21.632c-.333.317-.719.579-1.13.737-.638.245-1.317.405-1.987.533h-.001c-1.129 2.642.044 5.686 2.62 6.906.746-.545 1.363-1.286 1.753-2.197.907-2.117.332-4.49-1.255-5.979z"/><path d="m68.475 34.821c2.891-.038 6.256-2.019 7.862-.638 2.428 2.088.992 6.326-2.97 7.661-4.69 1.838-11.861.933-14.514-1.815-2.886-2.989-.653-6.537 1.712-6.842 1.872-.241 4.656 1.677 7.91 1.634z"/><path d="m68.16 23.697c-.124 0-.247-.028-.36-.085l-13.837-6.983c-.395-.199-.553-.68-.354-1.075.198-.395.68-.554 1.074-.354l13.48 6.804 11.88-5.875c.396-.195.875-.034 1.071.363.196.396.034.876-.362 1.072l-12.238 6.051c-.111.054-.233.082-.354.082z"/><path d="m58.214 62.996c-.192.334-.002.699-.171 1.279.121.194.149.489.464.481-.138-.47-.022-.905.249-1.128-.377.004-.289-.506-.542-.632z"/><path d="m88.869 38.243c.253-.009.458-.349.32-.604-.425-.112-.827.477-.32.604z"/><path d="m56.833 65.443c-.284.058-.488.248-.704.425l-.021.142c.299-.099.788.099.921-.257-.149-.023-.05-.287-.196-.31z"/><path d="m57.275 67.295c-.105.286-.467.197-.554.516.32-.032.587-.137.999-.036.123-.421-.263-.354-.445-.48z"/><path d="m55.558 69.77-.135.923c.203-.003.347-.084.44-.237-.173-.171.112-.723-.305-.686z"/><path d="m58.482 65.835c-.062-.089-.198-.101-.341-.106-.032.163-.014.275.028.363.19.037.288-.056.313-.257z"/><path d="m66.448 66.328c.189-.175-.007-.65-.164-.772-.286.047-.409.221-.581.348.084.38.546.535.745.424z"/><path d="m67.882 66.358c-.84.248-1.044.973-2.102 1.056.11.37-.073.739.232.907.384-.083.272-.543.815-.537.16-.174-.057-.598.277-.652.149.04.312.054.399.2.103.335-.04.785.342.804.331-.328.334-.843.619-1.189-.156-.261-.438-.305-.582-.589z"/><path d="m72.704 65.255c.034.138-.125.199.029.382.115-.043.189-.11.219-.188-.054-.156-.133-.235-.248-.194z"/><path d="m63.445 66.797c-.039-.275-.052-.526-.007-.718.205-.154.687-.067.64-.446-.194-.132-.614.09-.81-.046-.214.353-.275.805-.46 1.178-.235.471-.717.595-.9 1.127.051.013.078.056.071.139.661-.243.972.054.92.883.283.039.338-.131.602-.11-.351-.476-1.001-1.888-.056-2.007z"/><path d="m60.882 70.147c-.06.209-.06.22.002.431.155.04.356.147.489-.005.011-.329-.173-.442-.491-.426z"/><path d="m64.555 70.054c.389-.006.394-.301.515-.506-.244.014-.422-.056-.717.027-.012.262.123.333.202.479z"/><path d="m65.256 65.173c-.225.056-.321.46-.575.302.045.163.109.297.239.327 0-.307.458-.225.336-.629z"/><path d="m90.568 44.307c-.123-.063-.076-.195-.309-.214-.132.139.216.326.309.214z"/><path d="m91.709 43.73c.151.182.001.499-.077.777.568.205.527-.963.077-.777z"/><path d="m89.351 49.18c-.436-.247-.806-.359-1.279-.662-.115.369-.081.533-.19.808.241.184.369.401.692.565.445-.081.578-.26.777-.711z"/><path d="m86.906 51.887c.25-.261.804-.814.221-1.091-.42.099-.792.739-.221 1.091z"/><path d="m88.464 51.65c.431.022.779-.192 1.089-.443-.396-.664-1.695-.156-1.089.443z"/><path d="m88.264 46.862c.531.209.949.517 1.523.635.099-.136.387-.417.34-.504-.228.184-.586.142-.997.008-.165-.134-.164-.325-.284-.473-.272-.016-.396.211-.582.334z"/><path d="m90.782 46.66c.274.101.362-.107.424-.357-.288-.13-.536.11-.424.357z"/><path d="m91.661 43.106.062-.227c-.262-.184-.698-.211-.823.02.05.027.068.068.038.13.322.14.4-.063.723.077z"/><path d="m71.772 68.162c.044-.014.086-.024.096.037l.139-.058c-.012-.043-.022-.083.043-.096l-.054-.133c-.044.014-.086.025-.096-.037l-.138.058c.012.042.022.084-.043.095z"/><path d="m89.46 41.005c.105-.227-.047-.335.057-.562l-.419-.095c-.108.123-.231.225-.252.453.228.057.325.174.614.204z"/><path d="m90.096 39.469c.142.078.209.194.468.213.08-.174.006-.276.009-.414-.555.02-.572-.077-1.044-.263-.209.306-.404.622-.627.903.543.294.726-.406 1.194-.439z"/><path d="m88.674 41.78c.231-.146.011-.426-.155-.55-.057.229-.037.426.155.55z"/><path d="m90.514 38.414c.16-.117.315-.249.315-.581-.409-.123-.667.444-.315.581z"/><path d="m93.353 40.003c.635-.014.343-.815-.233-.678-.093.134-.081.601.233.678z"/><path d="m93.263 37.925c.058.171.084.327.084.51.142-.262.313-.318.42-.888l-.782-.097c.066.068.119.169.163.258.048.064.086.136.115.217z"/><path d="m90.327 41.682.418.104c.109-.342.141-.664-.256-.77-.044.276-.258.41-.162.666z"/><path d="m91.373 38.501c-.092-.036-.12-.109-.272-.109l-.042.24c.181.05.307.032.314-.131z"/><path d="m76.319 64.496c-.189.116-.315.243-.343.394.175-.011.285.279.519.005.024-.116-.07-.256-.176-.399z"/><path d="m84.078 57.256c-.071.142-.191.034-.254.216l.343.259c.114-.172.084-.331-.089-.475z"/><path d="m84.6 55.899c.147-.063.366.154.451-.155-.03-.108-.171-.2-.323-.29-.115.158-.168.307-.128.445z"/><path d="m82.342 60.694c-.163.079-.449.517-.229.753.556.321.813-.581.229-.753z"/><path d="m84.488 59.431c.087.097-.022.463.243.379-.106-.137.044-.552-.243-.379z"/><path d="m86.337 55.206c-.096.243.19.422.378.617.209-.255-.059-.613-.378-.617z"/><path d="m79.418 69.667c.125.274.374.168.636.011.041-.226-.352-.253-.636-.011z"/><path d="m79.905 66.173c.159.29.32.127.445-.071-.109-.199-.274-.077-.445.071z"/><path d="m86.825 46.617c-.091.076-.181.146-.252.258.105.168.426.21.509.079-.066-.12-.101-.247-.257-.337z"/><path d="m84.225 54.532c-.107.084-.247.048-.325.227.422.725 1.165.203.325-.227z"/><path d="m74.983 58.559c-.256-.339-.507-.419-.753-.143.147.324.325.909.738 1.151.182-.293-.457-.939.015-1.008z"/><path d="m64.329 63.497c-.097-.501.162-.658.376-.852-.227-.364-.287-.834-.221-1.171-.353.092-.709.177-1.066.255.084.236.152.503.349.545.147.581-.448.757-.808.604-.093-.098-.08-.362-.105-.568-.195-.15-.489-.141-.659-.321-.001-.007 0-.013-.001-.021-.28.048-.559.099-.841.139-.028.192-.055.387-.085.578.257.508 1.147.521 1.108 1.305-.022.509-.798.821-1.131.275-.225-.379.055-.578-.185-.996-.264 1.431-1.422-.079-1.22-.891-.263-.033-.477.005-.638.125-.172.675.125 1.299.174 1.942-.094.303-.431.274-.547.555.104.501.567.463.779.886.256.504-.062 1.271.379 1.662-.037-.883.718-.793.812-1.487-.077-.174-.218-.269-.178-.578.162-.825 1.181-.456 1.203.333.934-.008 1.02-.888 1.517-1.313.014-.35-.201-.351-.185-.704.1-.06.195-.144.325-.183.294.164.525.447.976.37.163.257.149.814.532.719.013-.337.096-.773-.063-1.078-.145-.134-.505.099-.597-.13zm-4.478 2.252c.159-.647-.372-.493-.255-1.084.825-.857 1.08 1.946.255 1.084z"/><path d="m89.193 43.656c.285.045.509.002.858.136.04-.225.24-.521.033-.643-.413-.192-.367.251-.765.076-.285-.172-.271-.462-.821-.523-.369.513.198 1.416-.337 1.628-.343-.062-.035-.361-.313-.446-.213.092-.413-.315-.495-.097.148.49.465 1.25-.508 1.09-.268.269-.507.586-1.11.352.06-.393.331-.619.21-1.051.286-.191.511-.463.808-.635-.057-.181-.099-.36.179-.337.3.02.353.542.501.322.571-.32-.082-1.099.573-1.191-.149-.205-.157-.463-.341-.653-.754.092-1.264.256-2.023.184-.092.189-.184.377-.276.564.16.164.168.384-.057.444-.054-.02-.09-.045-.131-.069-.294.585-.59 1.159-.894 1.719.024.033.052.064.071.098-.517.44-.477 1.287-.393 2.016-.159.215-.169-.185-.418-.116-.169-.036-.11.299-.268.279-.112-.029-.181-.073-.233-.122-.366.6-.745 1.186-1.137 1.761.02.011.032.01.054.026.071.129-.082.297-.14.447-.074.003-.153-.005-.231-.012-1.158 1.645-2.446 3.192-3.934 4.679.186.028.373.056.598.205.017.46-.582.389-.928.121-.663.646-1.367 1.282-2.116 1.909.193.31.218.689.021.924-.247-.185-.481-.278-.711-.358-.27.217-.538.433-.82.648-.296.226-.6.441-.905.653.162.265.259.555.146.714-.256-.012-.504-.124-.745-.314-.36.235-.724.46-1.093.676.143.075.282.201.404.472-.06.7-.762.173-.755-.272-.644.362-1.302.697-1.972 1.001.23.184.44.47.688.613.004.185.058.399-.084.505-.169.013-.314-.058-.393-.378-.215.178-.043.587-.066.885.373.581.961.497 1.345 1.141.331-.111.135-.481-.042-.841-.222.12-.431.192-.54-.079-.246-.545.201-.701.52-.929.386-.001.411.598.67.88.682-.214 1.044 1.003 1.674 1.148-.016-.524.31-1.339 1.071-1.272.203.558-.282.906.198 1.56.343.02.911-.048 1.118-.191-.072-.6-1.455-.646-.8-1.362-.189-.164-.485-.337-.299-.575.334-.095.691-.209 1.038-.524-.181-.778-.74-1.143-1.26-1.654.206-.266-.033-1.115.169-1.394.278-.384.633-.134 1.114-.073.267-.196.181-.463.417-.662.339.041.683.586.416.783-.262-.057-.51.053-.636.278.357.575.876.898.98 1.431.304-.072.369-.547.107-.861.268-.635.758-.545 1.264-.679-.589-.226-.315-.943-.905-.921-.053-.289-.035-.562.277-.798-.164-.366-.162-.704-.189-1.046.213-.001.353-.327.588-.244l.217.189c.204.564-.26 1.072-.137 1.638.315.233.592.171.888.217-.238-.922 1.017-.707.987-1.462.22.096.433.15.581-.038-.085-.29-.638-.321-.608-.622.246-.251.554-.281.891-.222.535.676.752 1.383.638 2.105-.471.128-.465.353-.664.778-.258.031-.491.216-.794-.07-.123.516-.606.605-1.049.476.15.287-.114.542-.378.794.384.106.59.574.79.732.398-.421.17-1.265.758-1.812.472.165.453.605.53.901.839-.212.736-1.158 1.518-1.535-.221-.165-.466-.329-.34-.501.326-.208.793.196 1.218.414.179-.207.417-.14.663-.043-.05.113.192.207.019.33-.272.004-.576-.152-.833-.091-.102.192-.045.382-.176.574.247.265.567.961 1.015.91-.54-.5.027-1.005.49-1.097-.371-.306-.207-.652-.346-.97.063-.315.399-.665.334-.971-.762-.576-1.076.486-1.839-.131.202-.389.529-.559.552-1.036.46-.234 1.034-.367 1.149-.845-.29-.097-.936-.146-.582-.562-.609-.032-.527-.862-1.038-.639-.221-.255-.215-.529-.003-.825-.058-.28-.352-.532-.27-.828.181-.178.517-.025.879.187-.047.356-.313.738.071 1.04.311.106.522-.048.817.024-.051-.112.055-.247.126-.376.221-.078.608.229.932.389.188.477-.218.984-.788.801.084.243.09.501-.144.789.4.441.684.566 1.093.822-.102-.675-.274-1.313.041-2.037.096.038.152-.024.244.004.403.189.328.464.518.695.161-.127.306-.301.474-.415-.307-.237-.417.02-.713-.192-.101-.166.027-.372.154-.58-.064-.247-.485-.426-.623-.656-.293-.037-.452.231-.749.176-.203-.1-.381-.205-.388-.336.251-.356.224-.722.011-1.104.553-.293-.442-1.21.521-1.065.13.267.331.518.145.851.246.228.777.465 1.055.453.118-.176-.196-.258-.02-.446.575-.049.324-1.007 1.162-.823-.085-.268-.168-.533-.631-.7-.186.086-.185.517-.487.388-.151-.398-.534-.729-.425-1.185.384-.187.933.409 1.224.036-.487-.26-.445-.789-.949-.902-.221-.334-.17-1.092.459-1.017.297.525 1.066.473 1.588.46.244.206.429.645.74.684-.057-.427-.444-.748-.2-1.136.206-.328.737-.207 1.165-.313.038-.481.385-.483.599-.697.049-.242-.26-.344-.108-.623zm-18.24 17.092c.133-.07.271-.176.382-.123l.101.19c-.061.204-.4.331-.483-.067zm1.271.782c-.295-.169-.553-.509-.805-.869.108-.151.165-.136.319-.009.182-.233.17-.529.512-.698.512.532 1.285 1.489-.026 1.576zm10.162-5.603c.294.003.404.317.159.502-.146-.1-.281-.201-.307-.307zm-4.555-.622c.023-.167-.013-.226.156-.293.106.008.234.117.364.237-.135.202-.309.224-.52.056zm2.83-2.286c.3.195.403.714-.04.571-.269-.177-.109-.374.04-.571zm-.823 1.164c-.053-.188.06-.377.066-.564-.354-.34-.72-.351-.905-.585.029-.196.03-.397-.027-.592.191-.084.398-.128.677.023.058.333.186.405.56.707-.143.41.663 1.455-.371 1.011zm2.867-5.933c.158.056.245.125.301.2-.069.206-.214.267-.463.128-.062-.189-.027-.26.162-.328zm-.396 1.742c.022-.046-.058-.077-.102-.114.088-.186.182-.345.309-.436.579.136.223.874-.207.55zm3.966-7.096c-.437-.087-.515-.294-.43-.564.067-.027.197.025.235-.04.381.096.544.513.195.604z"/><path d="m69.589 63.324c-.292.018-.437.384-.692.24-.264-.184.165-.298-.019-.598-.622-.212-.556-1.187-.99-1.635-.247-.265-.476.028-.709-.446 0-.13.035-.225.088-.3-.696.265-1.401.505-2.117.711-.013 1.197.403 2.146.304 3.268.392-.012.726.072.998.291-.063.11.008.318.048.504.21-.006.276-.114.414-.171.233.17.404.462.628.661.708.021 1.173.044 1.632-.488-.104-.243-.336-.194-.387-.552.427-.556 1.463-.564 1.46.415.318-.023.819-.103 1.071-.377-.553-.349-1.107-.621-1.675-.855-.038-.223.186-.503-.054-.668zm-2.707 1.725c.016-.746-.577-.651-.997-.799-.232-.695.312-.767.04-1.481.153-.221.44-.33.483-.63-.166-.388-.536-.301-.64-.806.048-.184.263-.222.479-.261.429.449.663 1.463 1.342 1.338.122.328.199.578.407.923-.525.211-.914.043-1.192-.329-.128.514-.105 1.103.421 1.374.263-.041.156-.339.319-.447.338-.041.425.316.374.633-.421.106-.488.837-1.036.485z"/><path d="m57.531 64.365c-.344-.026-.622.094-.692-.292.232-.619.504-1.253.91-1.7-.369.005-.738.001-1.108-.009l-.211 1.446c.221.042.204.325.195.599.269.164.736.13.722.586-.068.357-.305.349-.137.706.168.112.517-.114.771-.134-.141-.416-.186-.926-.45-1.202z"/><path d="m86.96 42.601c-.018.14-.087.214-.264.145.019-.139.088-.213.264-.145z"/><path d="m88.3 53.684c-.448-.321-.547-.718-.523-1.139-.156.124-.375.078-.592.039-.134.307-.326.462-.677.193-.081.238-.093.462.233.62.317.142.456-.204.774-.069.056.133-.108.314.1.414.196-.105.534.185.685-.058z"/><path d="m87.387 48.111c-.524-.052-.668-.401-.973-.462-.112.441.378.723.644 1.066.115-.184.422-.345.329-.604z"/><path d="m85.285 51.574c.322.184.463-.085.665-.181-.11-.085-.104-.195-.267-.268-.169.118-.414.2-.398.449z"/><path d="m76.268 63.414c-.144.046-.264-.038-.425.109.064.861 1.045.606.425-.109z"/><path d="m78.551 59.827-.294-.315c-.174.052-.346.077-.516.271.156.178.159.338.383.524.243-.15.186-.331.427-.48z"/><path d="m76.533 61.62c.112.2.037.368.19.577.239-.11.033-.549-.19-.577z"/><path d="m76.939 60.58c.302.005.297-.383.242-.586-.199.178-.311.369-.242.586z"/><path d="m75.07 61.456c-.2.334.528.795.842.636-.089-.424-.546-.692-.842-.636z"/><path d="m73.743 63.725c-.344.142-.309.412-.138.727.414.164.484-.485.138-.727z"/><path d="m74.788 65.278c.167.35.69.015.496-.286-.158.053-.445.093-.496.286z"/><path d="m71.506 68.735c.045.181.136.283.316.183-.065-.12.023-.181-.032-.297-.095.038-.189.082-.284.114z"/><path d="m88.148 54.556c-.125.104-.297.569-.025.746.617.19.621-.696.025-.746z"/><path d="m90.292 49.907c-.214.134-.411.304-.766.139.011.206.009.417.217.567.535-.038.745.324.969.643.367-.612-.033-.981-.42-1.349zm-.211.654c-.074-.092-.234-.158-.096-.314l.264.115c-.026.131-.114.131-.168.199z"/><path d="m78.977 62.616c-.71-.659.322-1.139.014-1.737-.183.231-.36.158-.542.388.073.457-.391 1.104.368 1.485z"/><path d="m86.062 57.954c.234.174.393-.027.54-.281-.239-.207-.565-.01-.54.281z"/><path d="m85.771 60.468c.029.161.366.203.514.042-.186-.13-.362-.225-.514-.042z"/><path d="m78.28 63.442c-.198.245-.315.503-.008.82.146-.059.273.015.434-.152-.067-.208-.16-.597-.426-.668z"/><path d="m93.507 44.75c-.216.101-.021.307-.161.528-.207.052-.386.145-.689.043-.072.231.261.292.302.478.615.112 1.109-.627.548-1.049z"/></g></svg>